<?xml version="1.0" encoding="UTF-8"?>

<svg version="1.1" viewBox="0 0 50 50" xmlns="http://www.w3.org/2000/svg">
 <g>
  <!-- <rect x="-2.5431e-6" y="-2.5431e-6" ry="13.565" width="132.29" height="132.29" style="fill:#00606433;stroke-width:.965"/> -->
  <path d="m16.884 101.74h98.524m-98.524-19.009h98.524m-98.524-19.009h98.524m-98.524-38.017h98.524m-98.524 19.009h98.524" style="fill:#f3fdfd;stroke-width:3;stroke:#f3fdfd"/>
  <g transform="matrix(.375 0 0 .375 -26.251 -26.908)" style="fill:#f3fdfd;shape-inside:url(#rect16780);white-space:pre" aria-label="m">
   <path d="m177.11 306.78h-22.04l30.4-108.68q0.76-2.28 1.2667-5.8267 0.76-3.8 0-6.84-0.75999-3.04-4.8133-3.04-5.5733 0-10.133 5.8267-4.56 5.8267-9.6267 20.013l-3.2933 9.3733h-4.8133l6.3333-18.493q5.5733-15.96 14.187-21.027t16.467-5.0667q10.133 0 12.92 5.8267 2.7867 5.8266 1.52 14.187-1.2667 8.1067-3.5467 15.453zm71.693-104.37q2.5333-7.8533 2.5333-14.44 0-6.84-7.0933-6.84-7.0933 0-15.707 8.8667-8.36 8.6133-17.227 24.32-8.6133 15.453-16.72 36.227-8.1067 20.52-14.44 44.08l8.36-40.533q11.653-30.4 21.787-48.133t20.267-25.333q10.387-7.6 22.04-7.6 10.893 0 14.187 6.3333 3.2933 6.08 2.28 14.947-1.0133 8.8666-3.2933 16.973l-25.84 95.507h-22.8zm63.333 0q2.5333-7.8533 2.5333-14.44 0-6.84-5.5733-6.84-9.88 0-21.533 15.707-11.653 15.453-23.56 42.813-11.653 27.107-22.547 62.067l5.8267-32.427q9.88-26.347 18.24-44.587 8.36-18.493 16.467-29.893 8.1067-11.4 16.72-16.467 8.6133-5.32 18.747-5.32 10.64 0 14.44 6.08 3.8 6.08 3.04 14.947-0.50667 8.6133-3.2933 17.227l-24.573 73.973q-2.5333 7.8533-1.7733 11.907 0.75999 3.8 5.8266 3.8 4.8133 0 9.3733-5.32 4.8133-5.32 10.133-20.52l3.2933-9.3733h4.8133l-6.3333 18.493q-5.5733 15.96-14.187 21.027t-16.467 5.0667q-6.3333 0-10.133-2.0267-3.5467-1.7733-5.5733-4.8133-3.04-4.8133-2.0267-11.907 1.0133-7.3467 4.0533-16.72z"/>
  </g>
 </g>
</svg>
